<svg xmlns="http://www.w3.org/2000/svg" xmlns:xlink="http://www.w3.org/1999/xlink" width="500" zoomAndPan="magnify" viewBox="0 0 375 374.999991" height="500" preserveAspectRatio="xMidYMid meet" version="1.2"><defs><clipPath id="a4f5adb1ba"><path d="M 56.601562 37.5 L 318.351562 37.5 L 318.351562 299.25 L 56.601562 299.25 Z M 56.601562 37.5 "/></clipPath></defs><g id="cbd6e9a8ff"><rect x="0" width="375" y="0" height="374.999991" style="fill:#ffffff;fill-opacity:1;stroke:none;"/><rect x="0" width="375" y="0" height="374.999991" style="fill:#000000;fill-opacity:1;stroke:none;"/><g clip-rule="nonzero" clip-path="url(#a4f5adb1ba)"><path style=" stroke:none;fill-rule:nonzero;fill:#ff751f;fill-opacity:1;" d="M 318.351562 168.375 C 318.351562 240.539062 259.644531 299.25 187.476562 299.25 C 185.277344 299.25 183.074219 299.203125 180.894531 299.085938 C 174.335938 298.738281 169.300781 293.125 169.648438 286.574219 C 169.996094 280.007812 175.652344 274.941406 182.164062 275.3125 C 183.921875 275.40625 185.695312 275.453125 187.480469 275.453125 C 246.519531 275.453125 294.558594 227.421875 294.558594 168.375 C 294.558594 109.328125 246.519531 61.296875 187.476562 61.296875 C 128.4375 61.296875 80.398438 109.328125 80.398438 168.375 C 80.398438 170.175781 80.4375 171.953125 80.527344 173.730469 C 80.855469 180.296875 75.800781 185.871094 69.238281 186.210938 C 69.035156 186.222656 68.835938 186.222656 68.632812 186.222656 C 62.335938 186.222656 57.078125 181.285156 56.765625 174.917969 C 56.65625 172.742188 56.601562 170.570312 56.601562 168.375 C 56.601562 96.210938 115.3125 37.5 187.476562 37.5 C 259.644531 37.5 318.351562 96.210938 318.351562 168.375 Z M 90.511719 256.285156 C 93.382812 259.433594 96.402344 262.453125 99.570312 265.324219 C 101.847656 267.390625 104.703125 268.414062 107.558594 268.414062 C 110.800781 268.414062 114.027344 267.101562 116.375 264.511719 C 120.792969 259.640625 120.425781 252.125 115.558594 247.710938 C 112.960938 245.351562 110.476562 242.867188 108.128906 240.273438 C 103.707031 235.429688 96.183594 235.058594 91.320312 239.472656 C 86.457031 243.898438 86.097656 251.417969 90.511719 256.285156 Z M 86.648438 204.535156 C 84.425781 198.351562 77.597656 195.109375 71.433594 197.351562 C 65.25 199.570312 62.035156 206.394531 64.261719 212.574219 C 65.707031 216.617188 67.351562 220.566406 69.179688 224.414062 C 71.222656 228.703125 75.484375 231.210938 79.933594 231.210938 C 81.648438 231.210938 83.386719 230.839844 85.035156 230.058594 C 90.964844 227.238281 93.492188 220.136719 90.675781 214.210938 C 89.183594 211.0625 87.839844 207.832031 86.648438 204.535156 Z M 143.261719 291.582031 C 144.59375 292.070312 145.953125 292.292969 147.292969 292.292969 C 152.167969 292.292969 156.742188 289.269531 158.488281 284.425781 C 160.714844 278.246094 157.507812 271.421875 151.324219 269.203125 C 148.003906 268.007812 144.761719 266.648438 141.59375 265.160156 C 135.667969 262.339844 128.558594 264.894531 125.757812 270.855469 C 122.957031 276.792969 125.507812 283.878906 131.449219 286.679688 C 135.292969 288.492188 139.230469 290.128906 143.261719 291.582031 Z M 187.476562 85.089844 C 180.910156 85.089844 175.582031 90.414062 175.582031 96.988281 L 175.582031 168.375 C 175.582031 172.882812 178.125 176.996094 182.15625 179.015625 L 229.746094 202.8125 C 231.457031 203.660156 233.273438 204.066406 235.058594 204.066406 C 239.425781 204.066406 243.625 201.664062 245.710938 197.492188 C 248.652344 191.613281 246.269531 184.46875 240.390625 181.527344 L 199.375 161.019531 L 199.375 96.988281 C 199.375 90.414062 194.046875 85.09375 187.476562 85.09375 Z M 187.476562 85.089844 "/></g><g style="fill:#ff751f;fill-opacity:1;"><g transform="translate(115.079729, 341.199998)"><path style="stroke:none" d="M 8.46875 0.25 C 6.9375 0.25 5.664062 -0.03125 4.65625 -0.59375 C 3.65625 -1.164062 2.894531 -1.957031 2.375 -2.96875 C 1.851562 -3.988281 1.570312 -5.175781 1.53125 -6.53125 C 1.507812 -7.207031 1.5 -7.9375 1.5 -8.71875 C 1.5 -9.507812 1.507812 -10.257812 1.53125 -10.96875 C 1.570312 -12.320312 1.851562 -13.503906 2.375 -14.515625 C 2.894531 -15.535156 3.65625 -16.328125 4.65625 -16.890625 C 5.664062 -17.460938 6.9375 -17.75 8.46875 -17.75 C 9.625 -17.75 10.632812 -17.585938 11.5 -17.265625 C 12.363281 -16.953125 13.082031 -16.53125 13.65625 -16 C 14.238281 -15.46875 14.675781 -14.867188 14.96875 -14.203125 C 15.269531 -13.546875 15.4375 -12.867188 15.46875 -12.171875 C 15.488281 -12.023438 15.441406 -11.898438 15.328125 -11.796875 C 15.222656 -11.703125 15.097656 -11.65625 14.953125 -11.65625 L 13.578125 -11.65625 C 13.421875 -11.65625 13.289062 -11.695312 13.1875 -11.78125 C 13.082031 -11.863281 13.003906 -12.007812 12.953125 -12.21875 C 12.671875 -13.519531 12.140625 -14.410156 11.359375 -14.890625 C 10.585938 -15.378906 9.625 -15.625 8.46875 -15.625 C 7.125 -15.625 6.054688 -15.242188 5.265625 -14.484375 C 4.484375 -13.722656 4.070312 -12.507812 4.03125 -10.84375 C 3.976562 -9.476562 3.976562 -8.082031 4.03125 -6.65625 C 4.070312 -4.988281 4.484375 -3.773438 5.265625 -3.015625 C 6.054688 -2.253906 7.125 -1.875 8.46875 -1.875 C 9.625 -1.875 10.585938 -2.113281 11.359375 -2.59375 C 12.140625 -3.082031 12.671875 -3.976562 12.953125 -5.28125 C 13.003906 -5.488281 13.082031 -5.632812 13.1875 -5.71875 C 13.289062 -5.800781 13.421875 -5.84375 13.578125 -5.84375 L 14.953125 -5.84375 C 15.097656 -5.84375 15.222656 -5.796875 15.328125 -5.703125 C 15.441406 -5.617188 15.488281 -5.5 15.46875 -5.34375 C 15.4375 -4.644531 15.269531 -3.960938 14.96875 -3.296875 C 14.675781 -2.628906 14.238281 -2.03125 13.65625 -1.5 C 13.082031 -0.96875 12.363281 -0.539062 11.5 -0.21875 C 10.632812 0.09375 9.625 0.25 8.46875 0.25 Z M 8.46875 0.25 "/></g></g><g style="fill:#ff751f;fill-opacity:1;"><g transform="translate(131.727093, 341.199998)"><path style="stroke:none" d="M 7.171875 0.25 C 5.910156 0.25 4.851562 0.0078125 4 -0.46875 C 3.144531 -0.957031 2.492188 -1.628906 2.046875 -2.484375 C 1.597656 -3.347656 1.347656 -4.328125 1.296875 -5.421875 C 1.285156 -5.703125 1.28125 -6.0625 1.28125 -6.5 C 1.28125 -6.945312 1.285156 -7.304688 1.296875 -7.578125 C 1.347656 -8.691406 1.601562 -9.671875 2.0625 -10.515625 C 2.519531 -11.367188 3.171875 -12.035156 4.015625 -12.515625 C 4.867188 -13.003906 5.921875 -13.25 7.171875 -13.25 C 8.421875 -13.25 9.46875 -13.003906 10.3125 -12.515625 C 11.164062 -12.035156 11.820312 -11.367188 12.28125 -10.515625 C 12.738281 -9.671875 12.992188 -8.691406 13.046875 -7.578125 C 13.066406 -7.304688 13.078125 -6.945312 13.078125 -6.5 C 13.078125 -6.0625 13.066406 -5.703125 13.046875 -5.421875 C 12.992188 -4.328125 12.742188 -3.347656 12.296875 -2.484375 C 11.847656 -1.628906 11.195312 -0.957031 10.34375 -0.46875 C 9.5 0.0078125 8.441406 0.25 7.171875 0.25 Z M 7.171875 -1.671875 C 8.203125 -1.671875 9.023438 -2 9.640625 -2.65625 C 10.265625 -3.320312 10.601562 -4.285156 10.65625 -5.546875 C 10.664062 -5.796875 10.671875 -6.113281 10.671875 -6.5 C 10.671875 -6.882812 10.664062 -7.203125 10.65625 -7.453125 C 10.601562 -8.710938 10.265625 -9.671875 9.640625 -10.328125 C 9.023438 -10.992188 8.203125 -11.328125 7.171875 -11.328125 C 6.140625 -11.328125 5.3125 -10.992188 4.6875 -10.328125 C 4.0625 -9.671875 3.734375 -8.710938 3.703125 -7.453125 C 3.679688 -7.203125 3.671875 -6.882812 3.671875 -6.5 C 3.671875 -6.113281 3.679688 -5.796875 3.703125 -5.546875 C 3.734375 -4.285156 4.0625 -3.320312 4.6875 -2.65625 C 5.3125 -2 6.140625 -1.671875 7.171875 -1.671875 Z M 7.171875 -1.671875 "/></g></g><g style="fill:#ff751f;fill-opacity:1;"><g transform="translate(146.074825, 341.199998)"><path style="stroke:none" d="M 6.59375 0.25 C 5.675781 0.25 4.882812 0.0859375 4.21875 -0.234375 C 3.550781 -0.554688 3.003906 -1 2.578125 -1.5625 C 2.160156 -2.125 1.847656 -2.757812 1.640625 -3.46875 C 1.429688 -4.1875 1.3125 -4.945312 1.28125 -5.75 C 1.257812 -6.019531 1.25 -6.269531 1.25 -6.5 C 1.25 -6.726562 1.257812 -6.976562 1.28125 -7.25 C 1.3125 -8.03125 1.429688 -8.78125 1.640625 -9.5 C 1.847656 -10.21875 2.160156 -10.859375 2.578125 -11.421875 C 3.003906 -11.992188 3.550781 -12.441406 4.21875 -12.765625 C 4.882812 -13.085938 5.675781 -13.25 6.59375 -13.25 C 7.582031 -13.25 8.398438 -13.070312 9.046875 -12.71875 C 9.703125 -12.375 10.238281 -11.941406 10.65625 -11.421875 L 10.65625 -17.171875 C 10.65625 -17.335938 10.707031 -17.472656 10.8125 -17.578125 C 10.914062 -17.691406 11.050781 -17.75 11.21875 -17.75 L 12.421875 -17.75 C 12.585938 -17.75 12.722656 -17.691406 12.828125 -17.578125 C 12.941406 -17.472656 13 -17.335938 13 -17.171875 L 13 -0.578125 C 13 -0.410156 12.941406 -0.269531 12.828125 -0.15625 C 12.722656 -0.0507812 12.585938 0 12.421875 0 L 11.296875 0 C 11.117188 0 10.976562 -0.0507812 10.875 -0.15625 C 10.769531 -0.269531 10.71875 -0.410156 10.71875 -0.578125 L 10.71875 -1.625 C 10.300781 -1.09375 9.757812 -0.644531 9.09375 -0.28125 C 8.425781 0.0703125 7.59375 0.25 6.59375 0.25 Z M 7.125 -1.78125 C 7.957031 -1.78125 8.625 -1.96875 9.125 -2.34375 C 9.625 -2.726562 10 -3.21875 10.25 -3.8125 C 10.5 -4.40625 10.632812 -5.007812 10.65625 -5.625 C 10.664062 -5.894531 10.671875 -6.21875 10.671875 -6.59375 C 10.671875 -6.96875 10.664062 -7.285156 10.65625 -7.546875 C 10.632812 -8.128906 10.492188 -8.703125 10.234375 -9.265625 C 9.972656 -9.835938 9.585938 -10.304688 9.078125 -10.671875 C 8.578125 -11.035156 7.925781 -11.21875 7.125 -11.21875 C 6.269531 -11.21875 5.59375 -11.03125 5.09375 -10.65625 C 4.59375 -10.28125 4.234375 -9.789062 4.015625 -9.1875 C 3.804688 -8.582031 3.6875 -7.925781 3.65625 -7.21875 C 3.632812 -6.738281 3.632812 -6.257812 3.65625 -5.78125 C 3.6875 -5.070312 3.804688 -4.414062 4.015625 -3.8125 C 4.234375 -3.207031 4.59375 -2.71875 5.09375 -2.34375 C 5.59375 -1.96875 6.269531 -1.78125 7.125 -1.78125 Z M 7.125 -1.78125 "/></g></g><g style="fill:#ff751f;fill-opacity:1;"><g transform="translate(160.947474, 341.199998)"><path style="stroke:none" d="M 7.046875 0.25 C 5.316406 0.25 3.941406 -0.273438 2.921875 -1.328125 C 1.910156 -2.390625 1.351562 -3.835938 1.25 -5.671875 C 1.226562 -5.890625 1.21875 -6.171875 1.21875 -6.515625 C 1.21875 -6.859375 1.226562 -7.132812 1.25 -7.34375 C 1.3125 -8.53125 1.582031 -9.566406 2.0625 -10.453125 C 2.550781 -11.347656 3.21875 -12.035156 4.0625 -12.515625 C 4.90625 -13.003906 5.894531 -13.25 7.03125 -13.25 C 8.289062 -13.25 9.347656 -12.984375 10.203125 -12.453125 C 11.066406 -11.921875 11.722656 -11.160156 12.171875 -10.171875 C 12.617188 -9.191406 12.84375 -8.039062 12.84375 -6.71875 L 12.84375 -6.296875 C 12.84375 -6.117188 12.789062 -5.976562 12.6875 -5.875 C 12.582031 -5.769531 12.445312 -5.71875 12.28125 -5.71875 L 3.625 -5.71875 C 3.625 -5.707031 3.625 -5.675781 3.625 -5.625 C 3.625 -5.570312 3.625 -5.53125 3.625 -5.5 C 3.65625 -4.8125 3.800781 -4.171875 4.0625 -3.578125 C 4.332031 -2.992188 4.722656 -2.515625 5.234375 -2.140625 C 5.742188 -1.773438 6.34375 -1.59375 7.03125 -1.59375 C 7.625 -1.59375 8.117188 -1.6875 8.515625 -1.875 C 8.921875 -2.0625 9.25 -2.265625 9.5 -2.484375 C 9.75 -2.710938 9.914062 -2.894531 10 -3.03125 C 10.144531 -3.226562 10.257812 -3.347656 10.34375 -3.390625 C 10.425781 -3.429688 10.5625 -3.453125 10.75 -3.453125 L 11.96875 -3.453125 C 12.125 -3.453125 12.253906 -3.40625 12.359375 -3.3125 C 12.472656 -3.21875 12.519531 -3.085938 12.5 -2.921875 C 12.476562 -2.671875 12.34375 -2.363281 12.09375 -2 C 11.84375 -1.644531 11.488281 -1.289062 11.03125 -0.9375 C 10.570312 -0.59375 10.003906 -0.304688 9.328125 -0.078125 C 8.660156 0.140625 7.898438 0.25 7.046875 0.25 Z M 3.625 -7.453125 L 10.46875 -7.453125 L 10.46875 -7.53125 C 10.46875 -8.28125 10.332031 -8.945312 10.0625 -9.53125 C 9.789062 -10.113281 9.394531 -10.570312 8.875 -10.90625 C 8.351562 -11.25 7.738281 -11.421875 7.03125 -11.421875 C 6.3125 -11.421875 5.695312 -11.25 5.1875 -10.90625 C 4.675781 -10.570312 4.285156 -10.113281 4.015625 -9.53125 C 3.753906 -8.945312 3.625 -8.28125 3.625 -7.53125 Z M 3.625 -7.453125 "/></g></g><g style="fill:#ff751f;fill-opacity:1;"><g transform="translate(174.945257, 341.199998)"><path style="stroke:none" d="M 8.46875 0.25 C 6.9375 0.25 5.664062 -0.03125 4.65625 -0.59375 C 3.65625 -1.164062 2.894531 -1.957031 2.375 -2.96875 C 1.851562 -3.988281 1.570312 -5.175781 1.53125 -6.53125 C 1.507812 -7.207031 1.5 -7.9375 1.5 -8.71875 C 1.5 -9.507812 1.507812 -10.257812 1.53125 -10.96875 C 1.570312 -12.320312 1.851562 -13.503906 2.375 -14.515625 C 2.894531 -15.535156 3.65625 -16.328125 4.65625 -16.890625 C 5.664062 -17.460938 6.9375 -17.75 8.46875 -17.75 C 9.625 -17.75 10.632812 -17.585938 11.5 -17.265625 C 12.363281 -16.953125 13.082031 -16.53125 13.65625 -16 C 14.238281 -15.46875 14.675781 -14.867188 14.96875 -14.203125 C 15.269531 -13.546875 15.4375 -12.867188 15.46875 -12.171875 C 15.488281 -12.023438 15.441406 -11.898438 15.328125 -11.796875 C 15.222656 -11.703125 15.097656 -11.65625 14.953125 -11.65625 L 13.578125 -11.65625 C 13.421875 -11.65625 13.289062 -11.695312 13.1875 -11.78125 C 13.082031 -11.863281 13.003906 -12.007812 12.953125 -12.21875 C 12.671875 -13.519531 12.140625 -14.410156 11.359375 -14.890625 C 10.585938 -15.378906 9.625 -15.625 8.46875 -15.625 C 7.125 -15.625 6.054688 -15.242188 5.265625 -14.484375 C 4.484375 -13.722656 4.070312 -12.507812 4.03125 -10.84375 C 3.976562 -9.476562 3.976562 -8.082031 4.03125 -6.65625 C 4.070312 -4.988281 4.484375 -3.773438 5.265625 -3.015625 C 6.054688 -2.253906 7.125 -1.875 8.46875 -1.875 C 9.625 -1.875 10.585938 -2.113281 11.359375 -2.59375 C 12.140625 -3.082031 12.671875 -3.976562 12.953125 -5.28125 C 13.003906 -5.488281 13.082031 -5.632812 13.1875 -5.71875 C 13.289062 -5.800781 13.421875 -5.84375 13.578125 -5.84375 L 14.953125 -5.84375 C 15.097656 -5.84375 15.222656 -5.796875 15.328125 -5.703125 C 15.441406 -5.617188 15.488281 -5.5 15.46875 -5.34375 C 15.4375 -4.644531 15.269531 -3.960938 14.96875 -3.296875 C 14.675781 -2.628906 14.238281 -2.03125 13.65625 -1.5 C 13.082031 -0.96875 12.363281 -0.539062 11.5 -0.21875 C 10.632812 0.09375 9.625 0.25 8.46875 0.25 Z M 8.46875 0.25 "/></g></g><g style="fill:#ff751f;fill-opacity:1;"><g transform="translate(191.592621, 341.199998)"><path style="stroke:none" d="M 2.453125 0 C 2.285156 0 2.144531 -0.0507812 2.03125 -0.15625 C 1.925781 -0.269531 1.875 -0.410156 1.875 -0.578125 L 1.875 -17.171875 C 1.875 -17.335938 1.925781 -17.472656 2.03125 -17.578125 C 2.144531 -17.691406 2.285156 -17.75 2.453125 -17.75 L 3.703125 -17.75 C 3.878906 -17.75 4.019531 -17.691406 4.125 -17.578125 C 4.226562 -17.472656 4.28125 -17.335938 4.28125 -17.171875 L 4.28125 -11.34375 C 4.726562 -11.914062 5.273438 -12.375 5.921875 -12.71875 C 6.578125 -13.070312 7.40625 -13.25 8.40625 -13.25 C 9.488281 -13.25 10.40625 -13.007812 11.15625 -12.53125 C 11.914062 -12.0625 12.488281 -11.40625 12.875 -10.5625 C 13.269531 -9.71875 13.46875 -8.738281 13.46875 -7.625 L 13.46875 -0.578125 C 13.46875 -0.410156 13.414062 -0.269531 13.3125 -0.15625 C 13.21875 -0.0507812 13.082031 0 12.90625 0 L 11.65625 0 C 11.488281 0 11.347656 -0.0507812 11.234375 -0.15625 C 11.128906 -0.269531 11.078125 -0.410156 11.078125 -0.578125 L 11.078125 -7.5 C 11.078125 -8.664062 10.789062 -9.578125 10.21875 -10.234375 C 9.65625 -10.890625 8.820312 -11.21875 7.71875 -11.21875 C 6.6875 -11.21875 5.851562 -10.890625 5.21875 -10.234375 C 4.59375 -9.578125 4.28125 -8.664062 4.28125 -7.5 L 4.28125 -0.578125 C 4.28125 -0.410156 4.226562 -0.269531 4.125 -0.15625 C 4.019531 -0.0507812 3.878906 0 3.703125 0 Z M 2.453125 0 "/></g></g><g style="fill:#ff751f;fill-opacity:1;"><g transform="translate(206.815207, 341.199998)"><path style="stroke:none" d="M 2.421875 0 C 2.253906 0 2.113281 -0.0507812 2 -0.15625 C 1.894531 -0.269531 1.84375 -0.410156 1.84375 -0.578125 L 1.84375 -12.40625 C 1.84375 -12.570312 1.894531 -12.710938 2 -12.828125 C 2.113281 -12.941406 2.253906 -13 2.421875 -13 L 3.578125 -13 C 3.742188 -13 3.882812 -12.941406 4 -12.828125 C 4.113281 -12.710938 4.171875 -12.570312 4.171875 -12.40625 L 4.171875 -11.296875 C 4.503906 -11.867188 4.960938 -12.296875 5.546875 -12.578125 C 6.128906 -12.859375 6.835938 -13 7.671875 -13 L 8.65625 -13 C 8.820312 -13 8.957031 -12.941406 9.0625 -12.828125 C 9.164062 -12.722656 9.21875 -12.585938 9.21875 -12.421875 L 9.21875 -11.40625 C 9.21875 -11.238281 9.164062 -11.101562 9.0625 -11 C 8.957031 -10.894531 8.820312 -10.84375 8.65625 -10.84375 L 7.15625 -10.84375 C 6.25 -10.84375 5.535156 -10.582031 5.015625 -10.0625 C 4.503906 -9.539062 4.25 -8.828125 4.25 -7.921875 L 4.25 -0.578125 C 4.25 -0.410156 4.191406 -0.269531 4.078125 -0.15625 C 3.960938 -0.0507812 3.820312 0 3.65625 0 Z M 2.421875 0 "/></g></g><g style="fill:#ff751f;fill-opacity:1;"><g transform="translate(216.063727, 341.199998)"><path style="stroke:none" d="M 7.171875 0.25 C 5.910156 0.25 4.851562 0.0078125 4 -0.46875 C 3.144531 -0.957031 2.492188 -1.628906 2.046875 -2.484375 C 1.597656 -3.347656 1.347656 -4.328125 1.296875 -5.421875 C 1.285156 -5.703125 1.28125 -6.0625 1.28125 -6.5 C 1.28125 -6.945312 1.285156 -7.304688 1.296875 -7.578125 C 1.347656 -8.691406 1.601562 -9.671875 2.0625 -10.515625 C 2.519531 -11.367188 3.171875 -12.035156 4.015625 -12.515625 C 4.867188 -13.003906 5.921875 -13.25 7.171875 -13.25 C 8.421875 -13.25 9.46875 -13.003906 10.3125 -12.515625 C 11.164062 -12.035156 11.820312 -11.367188 12.28125 -10.515625 C 12.738281 -9.671875 12.992188 -8.691406 13.046875 -7.578125 C 13.066406 -7.304688 13.078125 -6.945312 13.078125 -6.5 C 13.078125 -6.0625 13.066406 -5.703125 13.046875 -5.421875 C 12.992188 -4.328125 12.742188 -3.347656 12.296875 -2.484375 C 11.847656 -1.628906 11.195312 -0.957031 10.34375 -0.46875 C 9.5 0.0078125 8.441406 0.25 7.171875 0.25 Z M 7.171875 -1.671875 C 8.203125 -1.671875 9.023438 -2 9.640625 -2.65625 C 10.265625 -3.320312 10.601562 -4.285156 10.65625 -5.546875 C 10.664062 -5.796875 10.671875 -6.113281 10.671875 -6.5 C 10.671875 -6.882812 10.664062 -7.203125 10.65625 -7.453125 C 10.601562 -8.710938 10.265625 -9.671875 9.640625 -10.328125 C 9.023438 -10.992188 8.203125 -11.328125 7.171875 -11.328125 C 6.140625 -11.328125 5.3125 -10.992188 4.6875 -10.328125 C 4.0625 -9.671875 3.734375 -8.710938 3.703125 -7.453125 C 3.679688 -7.203125 3.671875 -6.882812 3.671875 -6.5 C 3.671875 -6.113281 3.679688 -5.796875 3.703125 -5.546875 C 3.734375 -4.285156 4.0625 -3.320312 4.6875 -2.65625 C 5.3125 -2 6.140625 -1.671875 7.171875 -1.671875 Z M 7.171875 -1.671875 "/></g></g><g style="fill:#ff751f;fill-opacity:1;"><g transform="translate(230.411458, 341.199998)"><path style="stroke:none" d="M 2.421875 0 C 2.253906 0 2.113281 -0.0507812 2 -0.15625 C 1.894531 -0.269531 1.84375 -0.410156 1.84375 -0.578125 L 1.84375 -12.421875 C 1.84375 -12.585938 1.894531 -12.722656 2 -12.828125 C 2.113281 -12.941406 2.253906 -13 2.421875 -13 L 3.59375 -13 C 3.757812 -13 3.894531 -12.941406 4 -12.828125 C 4.113281 -12.722656 4.171875 -12.585938 4.171875 -12.421875 L 4.171875 -11.328125 C 4.609375 -11.890625 5.15625 -12.347656 5.8125 -12.703125 C 6.46875 -13.066406 7.3125 -13.25 8.34375 -13.25 C 9.425781 -13.25 10.347656 -13.007812 11.109375 -12.53125 C 11.867188 -12.0625 12.441406 -11.40625 12.828125 -10.5625 C 13.222656 -9.71875 13.421875 -8.738281 13.421875 -7.625 L 13.421875 -0.578125 C 13.421875 -0.410156 13.363281 -0.269531 13.25 -0.15625 C 13.144531 -0.0507812 13.007812 0 12.84375 0 L 11.59375 0 C 11.425781 0 11.289062 -0.0507812 11.1875 -0.15625 C 11.082031 -0.269531 11.03125 -0.410156 11.03125 -0.578125 L 11.03125 -7.5 C 11.03125 -8.664062 10.742188 -9.578125 10.171875 -10.234375 C 9.609375 -10.890625 8.773438 -11.21875 7.671875 -11.21875 C 6.640625 -11.21875 5.8125 -10.890625 5.1875 -10.234375 C 4.5625 -9.578125 4.25 -8.664062 4.25 -7.5 L 4.25 -0.578125 C 4.25 -0.410156 4.191406 -0.269531 4.078125 -0.15625 C 3.972656 -0.0507812 3.835938 0 3.671875 0 Z M 2.421875 0 "/></g></g><g style="fill:#ff751f;fill-opacity:1;"><g transform="translate(245.559063, 341.199998)"><path style="stroke:none" d="M 7.171875 0.25 C 5.910156 0.25 4.851562 0.0078125 4 -0.46875 C 3.144531 -0.957031 2.492188 -1.628906 2.046875 -2.484375 C 1.597656 -3.347656 1.347656 -4.328125 1.296875 -5.421875 C 1.285156 -5.703125 1.28125 -6.0625 1.28125 -6.5 C 1.28125 -6.945312 1.285156 -7.304688 1.296875 -7.578125 C 1.347656 -8.691406 1.601562 -9.671875 2.0625 -10.515625 C 2.519531 -11.367188 3.171875 -12.035156 4.015625 -12.515625 C 4.867188 -13.003906 5.921875 -13.25 7.171875 -13.25 C 8.421875 -13.25 9.46875 -13.003906 10.3125 -12.515625 C 11.164062 -12.035156 11.820312 -11.367188 12.28125 -10.515625 C 12.738281 -9.671875 12.992188 -8.691406 13.046875 -7.578125 C 13.066406 -7.304688 13.078125 -6.945312 13.078125 -6.5 C 13.078125 -6.0625 13.066406 -5.703125 13.046875 -5.421875 C 12.992188 -4.328125 12.742188 -3.347656 12.296875 -2.484375 C 11.847656 -1.628906 11.195312 -0.957031 10.34375 -0.46875 C 9.5 0.0078125 8.441406 0.25 7.171875 0.25 Z M 7.171875 -1.671875 C 8.203125 -1.671875 9.023438 -2 9.640625 -2.65625 C 10.265625 -3.320312 10.601562 -4.285156 10.65625 -5.546875 C 10.664062 -5.796875 10.671875 -6.113281 10.671875 -6.5 C 10.671875 -6.882812 10.664062 -7.203125 10.65625 -7.453125 C 10.601562 -8.710938 10.265625 -9.671875 9.640625 -10.328125 C 9.023438 -10.992188 8.203125 -11.328125 7.171875 -11.328125 C 6.140625 -11.328125 5.3125 -10.992188 4.6875 -10.328125 C 4.0625 -9.671875 3.734375 -8.710938 3.703125 -7.453125 C 3.679688 -7.203125 3.671875 -6.882812 3.671875 -6.5 C 3.671875 -6.113281 3.679688 -5.796875 3.703125 -5.546875 C 3.734375 -4.285156 4.0625 -3.320312 4.6875 -2.65625 C 5.3125 -2 6.140625 -1.671875 7.171875 -1.671875 Z M 7.171875 -1.671875 "/></g></g></g></svg>